{
	"asset":{
		"generator":"Khronos glTF Blender I/O v4.4.55",
		"version":"2.0"
	},
	"extensionsUsed":[
		"KHR_lights_punctual"
	],
	"extensionsRequired":[
		"KHR_lights_punctual"
	],
	"extensions":{
		"KHR_lights_punctual":{
			"lights":[
				{
					"color":[
						1,
						1,
						1
					],
					"intensity":683,
					"type":"directional",
					"name":"Sun"
				}
			]
		}
	},
	"scene":0,
	"scenes":[
		{
			"name":"Scene",
			"nodes":[
				0,
				1,
				2
			]
		}
	],
	"nodes":[
		{
			"mesh":0,
			"name":"cornell",
			"rotation":[
				0.70710688829422,
				0,
				0,
				0.7071066498756409
			]
		},
		{
			"camera":0,
			"name":"Camera",
			"translation":[
				0,
				1,
				5
			]
		},
		{
			"extensions":{
				"KHR_lights_punctual":{
					"light":0
				}
			},
			"name":"Sun",
			"rotation":[
				-0.16773125529289246,
				0.25488701462745667,
				0.04494345188140869,
				0.9512512683868408
			]
		}
	],
	"cameras":[
		{
			"name":"Camera.001",
			"perspective":{
				"aspectRatio":1.7777777777777777,
				"yfov":0.39959651231765747,
				"zfar":1000,
				"znear":0.10000000149011612
			},
			"type":"perspective"
		}
	],
	"materials":[
		{
			"name":"white",
			"pbrMetallicRoughness":{
				"baseColorFactor":[
					0.7250000238418579,
					0.7099999785423279,
					0.6800000071525574,
					1
				],
				"metallicFactor":0
			}
		},
		{
			"name":"red",
			"pbrMetallicRoughness":{
				"baseColorFactor":[
					0.6299999952316284,
					0.06499999761581421,
					0.05000000074505806,
					1
				],
				"metallicFactor":0
			}
		},
		{
			"name":"green",
			"pbrMetallicRoughness":{
				"baseColorFactor":[
					0.14000000059604645,
					0.44999998807907104,
					0.09099999815225601,
					1
				],
				"metallicFactor":0
			}
		}
	],
	"meshes":[
		{
			"name":"cornell",
			"primitives":[
				{
					"attributes":{
						"POSITION":0,
						"NORMAL":1,
						"TEXCOORD_0":2
					},
					"indices":3,
					"material":0
				},
				{
					"attributes":{
						"POSITION":4,
						"NORMAL":5,
						"TEXCOORD_0":6
					},
					"indices":7,
					"material":1
				},
				{
					"attributes":{
						"POSITION":8,
						"NORMAL":9,
						"TEXCOORD_0":10
					},
					"indices":7,
					"material":2
				}
			]
		}
	],
	"accessors":[
		{
			"bufferView":0,
			"componentType":5126,
			"count":74,
			"max":[
				1,
				1,
				0.019999999552965164
			],
			"min":[
				-1,
				-1,
				-2
			],
			"type":"VEC3"
		},
		{
			"bufferView":1,
			"componentType":5126,
			"count":74,
			"type":"VEC3"
		},
		{
			"bufferView":2,
			"componentType":5126,
			"count":74,
			"type":"VEC2"
		},
		{
			"bufferView":3,
			"componentType":5123,
			"count":90,
			"type":"SCALAR"
		},
		{
			"bufferView":4,
			"componentType":5126,
			"count":4,
			"max":[
				-1,
				1,
				0
			],
			"min":[
				-1,
				-1,
				-2
			],
			"type":"VEC3"
		},
		{
			"bufferView":5,
			"componentType":5126,
			"count":4,
			"type":"VEC3"
		},
		{
			"bufferView":6,
			"componentType":5126,
			"count":4,
			"type":"VEC2"
		},
		{
			"bufferView":7,
			"componentType":5123,
			"count":6,
			"type":"SCALAR"
		},
		{
			"bufferView":8,
			"componentType":5126,
			"count":4,
			"max":[
				1,
				1,
				0
			],
			"min":[
				1,
				-1,
				-2
			],
			"type":"VEC3"
		},
		{
			"bufferView":9,
			"componentType":5126,
			"count":4,
			"type":"VEC3"
		},
		{
			"bufferView":10,
			"componentType":5126,
			"count":4,
			"type":"VEC2"
		}
	],
	"bufferViews":[
		{
			"buffer":0,
			"byteLength":888,
			"byteOffset":0,
			"target":34962
		},
		{
			"buffer":0,
			"byteLength":888,
			"byteOffset":888,
			"target":34962
		},
		{
			"buffer":0,
			"byteLength":592,
			"byteOffset":1776,
			"target":34962
		},
		{
			"buffer":0,
			"byteLength":180,
			"byteOffset":2368,
			"target":34963
		},
		{
			"buffer":0,
			"byteLength":48,
			"byteOffset":2548,
			"target":34962
		},
		{
			"buffer":0,
			"byteLength":48,
			"byteOffset":2596,
			"target":34962
		},
		{
			"buffer":0,
			"byteLength":32,
			"byteOffset":2644,
			"target":34962
		},
		{
			"buffer":0,
			"byteLength":12,
			"byteOffset":2676,
			"target":34963
		},
		{
			"buffer":0,
			"byteLength":48,
			"byteOffset":2688,
			"target":34962
		},
		{
			"buffer":0,
			"byteLength":48,
			"byteOffset":2736,
			"target":34962
		},
		{
			"buffer":0,
			"byteLength":32,
			"byteOffset":2784,
			"target":34962
		}
	],
	"buffers":[
		{
			"byteLength":2816,
			"uri":"cornell.bin"
		}
	]
}
